<?xml version="1.0" ?><!DOCTYPE svg  PUBLIC '-//W3C//DTD SVG 1.1//EN'  'http://www.w3.org/Graphics/SVG/1.1/DTD/svg11.dtd'><svg enable-background="new 0 0 100 100" height="100px" id="Layer_1" version="1.1" viewBox="0 0 100 100" width="100px" xml:space="preserve" xmlns="http://www.w3.org/2000/svg" xmlns:xlink="http://www.w3.org/1999/xlink"><g><path d="M49.607,96.088c25.352,0,45.978-20.625,45.978-45.978c0-25.352-20.625-45.978-45.978-45.978S3.63,24.758,3.63,50.11   C3.63,75.463,24.255,96.088,49.607,96.088z M49.607,6.133c24.25,0,43.978,19.728,43.978,43.978S73.857,94.088,49.607,94.088   S5.63,74.36,5.63,50.11S25.358,6.133,49.607,6.133z"/><path d="M49.146,34.703c0.198,0.015,0.395,0.023,0.593,0.023c2.775,0,5.759-1.53,7.789-3.994c2.12-2.582,3.19-5.903,2.864-8.885   c-0.057-0.523-0.509-0.913-1.036-0.89c-2.818,0.119-6.188,1.851-8.193,4.207c-1.708,1.983-3.375,5.303-2.93,8.672   C48.295,34.305,48.676,34.666,49.146,34.703z M52.683,26.465c1.416-1.664,3.711-2.987,5.767-3.389   c-0.037,2.183-0.923,4.506-2.466,6.385c-1.528,1.855-3.771,3.096-5.822,3.249C50.166,30.276,51.463,27.882,52.683,26.465z"/><path d="M41.797,73.932C41.797,73.932,41.798,73.932,41.797,73.932l0.217-0.004c1.675-0.067,2.858-0.573,4.003-1.062   c1.233-0.527,2.397-1.024,4.279-1.024c1.778,0,2.882,0.479,4.051,0.987c1.174,0.51,2.389,1.037,4.176,1.037l0.172-0.001   c4.062-0.076,6.565-3.747,8.577-6.696c2.172-3.186,3.261-6.28,3.639-7.499c0.167-0.499-0.097-1.048-0.584-1.248   c-0.626-0.257-6.12-2.704-6.178-9.387c-0.052-5.271,3.792-8.088,5.031-8.863c0.224-0.147,0.379-0.378,0.431-0.642   c0.052-0.263-0.004-0.536-0.155-0.757c-3.208-4.708-8.11-5.403-10.008-5.479c-2.646-0.268-5.176,0.724-7.149,1.505   c-1.072,0.424-2.085,0.824-2.674,0.824c-0.676,0-1.696-0.406-2.775-0.836c-1.627-0.648-3.472-1.383-5.477-1.383l-0.144,0.001   c-4.607,0.069-8.957,2.71-11.352,6.892c-4.482,7.807-1.667,19.61,3.258,26.753C35.143,69.953,37.892,73.932,41.797,73.932z    M31.612,41.291c2.046-3.573,5.743-5.829,9.65-5.887l0.11-0.001c1.622,0,3.277,0.659,4.737,1.241   c1.318,0.525,2.456,0.979,3.516,0.979c0.97,0,2.1-0.447,3.409-0.964c1.671-0.661,3.566-1.41,5.504-1.41   c0.235,0,0.471,0.011,0.768,0.04c1.539,0.063,5.222,0.573,7.9,3.815c-1.857,1.4-5.11,4.621-5.057,9.95   c0.057,6.631,4.63,9.779,6.587,10.822c-0.487,1.379-1.464,3.742-3.117,6.166c-2.228,3.268-4.155,5.771-6.962,5.823l-0.135,0.001   c-1.372,0-2.302-0.404-3.379-0.872c-1.244-0.54-2.655-1.152-4.848-1.152c-2.291,0-3.765,0.63-5.064,1.185   c-1.068,0.456-1.99,0.85-3.295,0.902l-0.139,0.003c-2.638,0-4.824-2.848-7.016-6.02C28.648,57.018,28.571,46.588,31.612,41.291z"/></g></svg>